<?xml version="1.0" encoding="utf-8"?>
<!-- Generator: Adobe Illustrator 27.9.4, SVG Export Plug-In . SVG Version: 9.03 Build 54784)  -->
<svg version="1.1" id="Layer_1" xmlns="http://www.w3.org/2000/svg" xmlns:xlink="http://www.w3.org/1999/xlink" x="0px" y="0px"
	 viewBox="0 0 38.9 39.1" style="enable-background:new 0 0 38.9 39.1;" xml:space="preserve">
<style type="text/css">
	.st0{display:none;}
	.st1{fill:#231F20;}
	.st2{fill:#231F20;stroke:#231F20;stroke-width:0.5;stroke-miterlimit:10;}
</style>
<g id="Layer_1_00000021832252980832048460000016052833203451974812_" class="st0">
	<g id="Layer_1_00000101797797604281286300000011315508594200321975_">
	</g>
</g>
<g id="FN">
	<circle class="st1" cx="19.5" cy="19.3" r="3.9"/>
	<path class="st2" d="M19.5,30.5c-6.2,0-11.2-5-11.2-11.2s5-11.2,11.2-11.2s11.2,5,11.2,11.2S25.7,30.5,19.5,30.5z M19.5,9.7
		c-5.3,0-9.6,4.3-9.6,9.6s4.3,9.6,9.6,9.6s9.6-4.3,9.6-9.6S24.9,9.7,19.5,9.7z"/>
	<path class="st2" d="M19.5,37.9c-10.2,0-18.6-8.3-18.6-18.6S9.3,0.7,19.5,0.7S38.1,9,38.1,19.3S29.8,37.9,19.5,37.9z M19.5,2.3
		c-9.4,0-17,7.6-17,17s7.6,17,17,17s17-7.6,17-17S28.9,2.3,19.5,2.3z"/>
</g>
</svg>
