<?xml version="1.0" encoding="utf-8"?>
<!-- Generator: Adobe Illustrator 27.9.4, SVG Export Plug-In . SVG Version: 9.03 Build 54784)  -->
<svg version="1.1" id="Layer_1" xmlns="http://www.w3.org/2000/svg" xmlns:xlink="http://www.w3.org/1999/xlink" x="0px" y="0px"
	 viewBox="0 0 44.6 33.5" style="enable-background:new 0 0 44.6 33.5;" xml:space="preserve">
<style type="text/css">
	.st0{fill:none;stroke:#020202;stroke-width:2;stroke-linecap:round;stroke-linejoin:round;}
</style>
<g id="Layer_1_00000139268223626335757080000012218602288220091538_">
</g>
<g id="FN">
	<g id="Group_2930_00000181077632450581193420000003040540810277530250_">
		<path id="Path_1863_00000022548004587969990030000013212935403478185885_" class="st0" d="M41.1,31.4H4c-1.2,0-2.2-1-2.2-2.2l0,0
			V6.6c0-1.2,1-2.2,2.2-2.2l0,0h37.1c1.2,0,2.2,1,2.2,2.2v22.6C43.3,30.4,42.3,31.4,41.1,31.4z M14.4,3.9c0-1.2-1-2.2-2.2-2.2l0,0
			H8.9c-1.2,0-2.2,1-2.2,2.2l0,0 M38.2,6.6c-0.9,0-1.6,0.7-1.6,1.6s0.7,1.6,1.6,1.6c0.9,0,1.6-0.7,1.6-1.6
			C39.8,7.3,39.1,6.6,38.2,6.6L38.2,6.6L38.2,6.6z M22.7,8.8c-5.3,0-9.6,4.3-9.6,9.6s4.3,9.6,9.6,9.6s9.6-4.3,9.6-9.6
			S28,8.8,22.7,8.8L22.7,8.8z M22.6,13.7c-2.5,0-4.5,2-4.5,4.5s2,4.5,4.5,4.5s4.5-2,4.5-4.5l0,0C27.1,15.7,25.1,13.7,22.6,13.7
			L22.6,13.7z M33.5,28.1h6.1"/>
	</g>
</g>
</svg>
