<?xml version="1.0" encoding="utf-8"?>
<!-- Generator: Adobe Illustrator 27.9.4, SVG Export Plug-In . SVG Version: 9.03 Build 54784)  -->
<svg version="1.1" id="Layer_1" xmlns="http://www.w3.org/2000/svg" xmlns:xlink="http://www.w3.org/1999/xlink" x="0px" y="0px"
	 viewBox="0 0 45.7 33.9" style="enable-background:new 0 0 45.7 33.9;" xml:space="preserve">
<style type="text/css">
	.st0{fill:none;stroke:#020202;stroke-width:2;stroke-linecap:round;stroke-linejoin:round;}
</style>
<g id="Layer_1_00000120547907555120397660000007988335043830078868_">
</g>
<g id="FN">
	<g id="Group_2930_00000181077632450581193420000003040540810277530250_">
		<path id="Path_1863_00000022548004587969990030000013212935403478185885_" class="st0" d="M41.6,31.8H4.5c-1.2,0-2.2-1-2.2-2.2
			l0,0V7c0-1.2,1-2.2,2.2-2.2l0,0h37.1c1.2,0,2.2,1,2.2,2.2v22.6C43.8,30.8,42.8,31.8,41.6,31.8z M14.9,4.3c0-1.2-1-2.2-2.2-2.2l0,0
			H9.4c-1.2,0-2.2,1-2.2,2.2l0,0 M38.7,7c-0.9,0-1.6,0.7-1.6,1.6s0.7,1.6,1.6,1.6c0.9,0,1.6-0.7,1.6-1.6C40.3,7.7,39.6,7,38.7,7
			L38.7,7L38.7,7z M23.2,9.2c-5.3,0-9.6,4.3-9.6,9.6s4.3,9.6,9.6,9.6s9.6-4.3,9.6-9.6S28.5,9.2,23.2,9.2L23.2,9.2z M23.1,14.1
			c-2.5,0-4.5,2-4.5,4.5s2,4.5,4.5,4.5s4.5-2,4.5-4.5l0,0C27.6,16.1,25.6,14.1,23.1,14.1L23.1,14.1z M34,28.5h6.1"/>
	</g>
</g>
</svg>
