<?xml version="1.0" encoding="utf-8"?>
<!-- Generator: Adobe Illustrator 27.9.4, SVG Export Plug-In . SVG Version: 9.03 Build 54784)  -->
<svg version="1.1" id="Layer_1" xmlns="http://www.w3.org/2000/svg" xmlns:xlink="http://www.w3.org/1999/xlink" x="0px" y="0px"
	 viewBox="0 0 53.8 34.4" style="enable-background:new 0 0 53.8 34.4;" xml:space="preserve">
<style type="text/css">
	.st0{fill:#231F20;}
	.st1{fill:#231F20;stroke:#231F20;stroke-width:0.5;stroke-miterlimit:10;}
	.st2{fill:none;stroke:#231F20;stroke-width:2;stroke-linecap:round;stroke-miterlimit:10;}
</style>
<g id="Layer_1_00000132773627092723903590000016011468624136430780_">
</g>
<g id="FN">
	<circle class="st0" cx="25.2" cy="18.5" r="3.9"/>
	<path class="st1" d="M25.2,29.7c-6.2,0-11.2-5-11.2-11.2S19,7.3,25.2,7.3s11.2,5,11.2,11.2S31.3,29.7,25.2,29.7z M25.2,8.9
		c-5.3,0-9.6,4.3-9.6,9.6s4.3,9.6,9.6,9.6s9.6-4.3,9.6-9.6S30.5,8.9,25.2,8.9z"/>
	<path class="st2" d="M1.5,18.5c0.6,0,2.5-2.4,5.4-5.9C14.2,3.4,22.2,2.7,26.5,3c15.8,1.1,25.3,17.5,25.3,17.5"/>
</g>
</svg>
