<?xml version="1.0" encoding="utf-8"?>
<!-- Generator: Adobe Illustrator 27.9.4, SVG Export Plug-In . SVG Version: 9.03 Build 54784)  -->
<svg version="1.1"
	 id="Layer_1" shape-rendering="geometricPrecision" image-rendering="optimizeQuality" text-rendering="geometricPrecision"
	 xmlns="http://www.w3.org/2000/svg" xmlns:xlink="http://www.w3.org/1999/xlink" x="0px" y="0px" viewBox="0 0 512 509.6"
	 style="enable-background:new 0 0 512 509.6;" xml:space="preserve">
<style type="text/css">
	.st0{fill-rule:evenodd;clip-rule:evenodd;}
	.st1{fill:#FFFFFF;}
</style>
<g>
	<path class="st0" d="M437.9,512H74.1C33.2,512,0,478.8,0,437.9V74.1C0,33.2,33.2,0,74.1,0h363.8C478.8,0,512,33.2,512,74.1v363.8
		C512,478.8,478.8,512,437.9,512z"/>
	<path class="st1" d="M398.3,314.5l12.4-81.1h-77.8v-52.6c0-22.2,10.9-43.8,45.7-43.8H414V68c0,0-32.1-5.5-62.8-5.5
		c-64.1,0-106,38.8-106,109.2v61.8H174v81.1h71.2v196c14.3,2.2,28.9,3.4,43.8,3.4c14.9,0,29.6-1.2,43.8-3.4v-196H398.3z"/>
</g>
</svg>
