<?xml version="1.0" encoding="utf-8"?>
<!-- Generator: Adobe Illustrator 27.9.4, SVG Export Plug-In . SVG Version: 9.03 Build 54784)  -->
<svg version="1.1" id="Layer_1" xmlns:serif="http://www.serif.com/"
	 xmlns="http://www.w3.org/2000/svg" xmlns:xlink="http://www.w3.org/1999/xlink" x="0px" y="0px" viewBox="0 0 576 576"
	 style="enable-background:new 0 0 576 576;" xml:space="preserve">
<style type="text/css">
	.st0{fill-rule:evenodd;clip-rule:evenodd;}
</style>
<path class="st0" d="M505.6,0C544.5,0,576,31.5,576,70.4v435.3c0,38.8-31.5,70.4-70.4,70.4H70.4C31.5,576,0,544.5,0,505.6V70.4
	C0,31.5,31.5,0,70.4,0L505.6,0L505.6,0z M288,91.1c-53.5,0-60.2,0.2-81.2,1.2c-21,1-35.3,4.3-47.8,9.2c-12.9,5-23.9,11.8-34.9,22.7
	c-10.9,10.9-17.7,21.9-22.7,34.9c-4.9,12.5-8.2,26.8-9.2,47.8c-1,21-1.2,27.7-1.2,81.2s0.2,60.2,1.2,81.2c1,21,4.3,35.3,9.2,47.8
	c5,12.9,11.8,23.9,22.7,34.9s21.9,17.7,34.9,22.7c12.5,4.9,26.8,8.2,47.8,9.2c21,1,27.7,1.2,81.2,1.2s60.2-0.2,81.2-1.2
	c21-1,35.3-4.3,47.8-9.2c12.9-5,23.9-11.8,34.9-22.7s17.7-21.9,22.7-34.9c4.9-12.5,8.2-26.8,9.2-47.8c1-21,1.2-27.7,1.2-81.2
	s-0.2-60.2-1.2-81.2c-1-21-4.3-35.3-9.2-47.8c-5-12.9-11.8-23.9-22.7-34.9c-10.9-10.9-21.9-17.7-34.9-22.7
	c-12.5-4.9-26.8-8.2-47.8-9.2C348.2,91.4,341.5,91.1,288,91.1z M288,126.6c52.6,0,58.8,0.2,79.6,1.1c19.2,0.9,29.6,4.1,36.6,6.8
	c9.2,3.6,15.7,7.8,22.6,14.7c6.9,6.9,11.2,13.4,14.7,22.6c2.7,6.9,5.9,17.4,6.8,36.6c0.9,20.8,1.1,27,1.1,79.6s-0.2,58.8-1.1,79.6
	c-0.9,19.2-4.1,29.6-6.8,36.6c-3.6,9.2-7.8,15.7-14.7,22.6c-6.9,6.9-13.4,11.2-22.6,14.7c-6.9,2.7-17.4,5.9-36.6,6.8
	c-20.8,0.9-27,1.1-79.6,1.1s-58.8-0.2-79.6-1.1c-19.2-0.9-29.6-4.1-36.6-6.8c-9.2-3.6-15.7-7.8-22.6-14.7s-11.2-13.4-14.7-22.6
	c-2.7-6.9-5.9-17.4-6.8-36.6c-0.9-20.8-1.1-27-1.1-79.6s0.2-58.8,1.1-79.6c0.9-19.2,4.1-29.6,6.8-36.6c3.6-9.2,7.8-15.7,14.7-22.6
	c6.9-6.9,13.4-11.2,22.6-14.7c6.9-2.7,17.4-5.9,36.6-6.8C229.2,126.8,235.4,126.6,288,126.6L288,126.6z M288,186.9
	c-55.8,0-101.1,45.3-101.1,101.1S232.2,389.1,288,389.1S389.1,343.8,389.1,288S343.8,186.9,288,186.9L288,186.9z M288,353.6
	c-36.2,0-65.6-29.4-65.6-65.6s29.4-65.6,65.6-65.6s65.6,29.4,65.6,65.6S324.2,353.6,288,353.6z M416.7,182.9
	c0,13-10.6,23.6-23.6,23.6c-13,0-23.6-10.6-23.6-23.6c0-13,10.6-23.6,23.6-23.6C406.1,159.3,416.7,169.9,416.7,182.9L416.7,182.9z"
	/>
</svg>
